<mxfile host="app.diagrams.net" modified="2021-04-29T03:19:23.489Z" agent="5.0 (Macintosh; Intel Mac OS X 10_15_7) AppleWebKit/537.36 (KHTML, like Gecko) Chrome/90.0.4430.85 Safari/537.36" etag="r-gcFgdVepIpFXc9ftt3" version="14.6.6" type="github">
  <diagram id="Ow_AVmy7Ml7WNaqZmlaC" name="Page-1">
    <mxGraphModel dx="941" dy="768" grid="1" gridSize="10" guides="1" tooltips="1" connect="1" arrows="1" fold="1" page="1" pageScale="1" pageWidth="827" pageHeight="1169" math="0" shadow="0">
      <root>
        <mxCell id="0" />
        <mxCell id="1" parent="0" />
        <mxCell id="0TEbAbj2sO7XbBUJldYK-73" value="&lt;font color=&quot;#ffffff&quot;&gt;技&lt;br&gt;术&lt;br&gt;赋&lt;br&gt;能&lt;br&gt;&lt;/font&gt;" style="text;strokeColor=none;fillColor=none;html=1;fontSize=16;fontStyle=1;verticalAlign=middle;align=center;rounded=1;" parent="1" vertex="1">
          <mxGeometry x="90" y="565" width="40" height="40" as="geometry" />
        </mxCell>
        <mxCell id="CxhGN7uguc151sI_CERg-26" value="" style="group;fillColor=#bac8d3;dashed=1;opacity=50;strokeColor=#4D4D4D;container=0;" parent="1" vertex="1" connectable="0">
          <mxGeometry x="170" y="41" width="140" height="190" as="geometry" />
        </mxCell>
        <mxCell id="CxhGN7uguc151sI_CERg-28" value="&lt;span style=&quot;font-weight: 400&quot;&gt;发布更新&lt;/span&gt;" style="text;strokeColor=none;fillColor=none;html=1;fontSize=16;fontStyle=1;verticalAlign=middle;align=center;dashed=1;" parent="1" vertex="1">
          <mxGeometry x="170" y="41" width="100" height="40" as="geometry" />
        </mxCell>
        <mxCell id="CxhGN7uguc151sI_CERg-30" value="精准灰度" style="rounded=1;whiteSpace=wrap;html=1;dashed=1;fontSize=16;fontColor=#ffffff;fillColor=#EB6100;strokeColor=none;" parent="1" vertex="1">
          <mxGeometry x="195" y="81" width="90" height="40" as="geometry" />
        </mxCell>
        <mxCell id="CxhGN7uguc151sI_CERg-31" value="热更新" style="rounded=1;whiteSpace=wrap;html=1;dashed=1;fontSize=16;fontColor=#ffffff;fillColor=#EB6100;strokeColor=none;" parent="1" vertex="1">
          <mxGeometry x="195" y="131" width="90" height="40" as="geometry" />
        </mxCell>
        <mxCell id="CxhGN7uguc151sI_CERg-32" value="容器化" style="rounded=1;whiteSpace=wrap;html=1;dashed=1;fontSize=16;fontColor=#ffffff;fillColor=#EB6100;strokeColor=none;" parent="1" vertex="1">
          <mxGeometry x="195" y="181" width="90" height="40" as="geometry" />
        </mxCell>
        <mxCell id="CxhGN7uguc151sI_CERg-33" value="" style="group;fillColor=#bac8d3;dashed=1;opacity=50;strokeColor=#4D4D4D;container=0;" parent="1" vertex="1" connectable="0">
          <mxGeometry x="340" y="41" width="140" height="190" as="geometry" />
        </mxCell>
        <mxCell id="CxhGN7uguc151sI_CERg-34" value="&lt;span style=&quot;font-weight: 400&quot;&gt;降级容灾&lt;/span&gt;" style="text;strokeColor=none;fillColor=none;html=1;fontSize=16;fontStyle=1;verticalAlign=middle;align=center;dashed=1;" parent="1" vertex="1">
          <mxGeometry x="340" y="41" width="100" height="40" as="geometry" />
        </mxCell>
        <mxCell id="CxhGN7uguc151sI_CERg-36" value="核心降级" style="rounded=1;whiteSpace=wrap;html=1;dashed=1;fontSize=16;fontColor=#ffffff;fillColor=#EB6100;strokeColor=none;" parent="1" vertex="1">
          <mxGeometry x="365" y="81" width="90" height="40" as="geometry" />
        </mxCell>
        <mxCell id="CxhGN7uguc151sI_CERg-37" value="非核心降级" style="rounded=1;whiteSpace=wrap;html=1;dashed=1;fontSize=16;fontColor=#ffffff;fillColor=#EB6100;strokeColor=none;" parent="1" vertex="1">
          <mxGeometry x="365" y="131" width="90" height="40" as="geometry" />
        </mxCell>
        <mxCell id="CxhGN7uguc151sI_CERg-38" value="恢复 熔断" style="rounded=1;whiteSpace=wrap;html=1;dashed=1;fontSize=16;fontColor=#ffffff;fillColor=#EB6100;strokeColor=none;" parent="1" vertex="1">
          <mxGeometry x="365" y="181" width="90" height="40" as="geometry" />
        </mxCell>
        <mxCell id="CxhGN7uguc151sI_CERg-45" value="&lt;font style=&quot;font-size: 16px&quot;&gt;&lt;font color=&quot;#ffffff&quot;&gt;组织保障&lt;/font&gt;&lt;br&gt;&lt;/font&gt;" style="text;strokeColor=none;fillColor=none;html=1;fontSize=16;fontStyle=1;verticalAlign=middle;align=center;rounded=1;" parent="1" vertex="1">
          <mxGeometry x="340" y="80" width="40" height="40" as="geometry" />
        </mxCell>
        <mxCell id="Rk4vVzOvWR1lfrGUiNAf-26" value="" style="rounded=0;whiteSpace=wrap;html=1;dashed=1;fontSize=18;fontColor=#0A2D63;align=center;fillColor=#F5F9FA;strokeColor=none;" vertex="1" parent="1">
          <mxGeometry x="50" y="40" width="770" height="690" as="geometry" />
        </mxCell>
        <mxCell id="Rk4vVzOvWR1lfrGUiNAf-27" value="" style="rounded=1;whiteSpace=wrap;html=1;fontSize=18;fontColor=#0A2D63;align=center;fillColor=none;strokeColor=#e9eef0;strokeWidth=3;arcSize=3;" vertex="1" parent="1">
          <mxGeometry x="100" y="61" width="670" height="650" as="geometry" />
        </mxCell>
        <mxCell id="Rk4vVzOvWR1lfrGUiNAf-44" value="" style="rounded=1;whiteSpace=wrap;html=1;dashed=1;fontSize=18;align=center;arcSize=6;strokeColor=none;fillColor=#ffe4e7;" vertex="1" parent="1">
          <mxGeometry x="660" y="81" width="90" height="390" as="geometry" />
        </mxCell>
        <mxCell id="Rk4vVzOvWR1lfrGUiNAf-45" value="&lt;font style=&quot;font-size: 14px&quot;&gt;数&lt;br&gt;据&lt;br&gt;运&lt;br&gt;营&lt;/font&gt;" style="text;html=1;strokeColor=none;fillColor=none;align=center;verticalAlign=middle;whiteSpace=wrap;rounded=0;fontSize=16;fontColor=#0A2D63;horizontal=0;rotation=90;fontStyle=1;" vertex="1" parent="1">
          <mxGeometry x="660" y="216" width="40" height="70" as="geometry" />
        </mxCell>
        <mxCell id="Rk4vVzOvWR1lfrGUiNAf-46" value="&lt;font style=&quot;font-size: 12px&quot;&gt;生&lt;br&gt;产&lt;br&gt;数&lt;br&gt;据&lt;br&gt;盘&lt;br&gt;点&lt;br&gt;&lt;/font&gt;" style="rounded=1;whiteSpace=wrap;html=1;dashed=1;fontSize=15;align=center;fontColor=#ffffff;strokeColor=none;fontStyle=1;direction=south;horizontal=1;fillColor=#fd8494;" vertex="1" parent="1">
          <mxGeometry x="700" y="106" width="40" height="125" as="geometry" />
        </mxCell>
        <mxCell id="Rk4vVzOvWR1lfrGUiNAf-47" value="&lt;font style=&quot;font-size: 12px&quot;&gt;故&lt;br&gt;障&lt;br&gt;复&lt;br&gt;盘&lt;/font&gt;" style="rounded=1;whiteSpace=wrap;html=1;dashed=1;fontSize=16;align=center;fontColor=#ffffff;strokeColor=none;fontStyle=1;direction=south;horizontal=1;fillColor=#fd8494;" vertex="1" parent="1">
          <mxGeometry x="700" y="236" width="40" height="95" as="geometry" />
        </mxCell>
        <mxCell id="Rk4vVzOvWR1lfrGUiNAf-40" value="" style="rounded=1;whiteSpace=wrap;html=1;dashed=1;fontSize=18;align=center;arcSize=3;strokeColor=none;fillColor=#dfe7fd;" vertex="1" parent="1">
          <mxGeometry x="140" y="481" width="509" height="210" as="geometry" />
        </mxCell>
        <mxCell id="Rk4vVzOvWR1lfrGUiNAf-41" value="&lt;font style=&quot;font-size: 14px;&quot;&gt;技术赋能&lt;/font&gt;" style="text;html=1;strokeColor=none;fillColor=none;align=center;verticalAlign=middle;whiteSpace=wrap;rounded=0;dashed=1;fontSize=14;fontColor=#0A2D63;fontStyle=1" vertex="1" parent="1">
          <mxGeometry x="329.62" y="491" width="120.75" height="20" as="geometry" />
        </mxCell>
        <mxCell id="Rk4vVzOvWR1lfrGUiNAf-29" value="" style="rounded=1;whiteSpace=wrap;html=1;dashed=1;fontSize=18;align=center;arcSize=3;fillColor=#E7E5FE;strokeColor=none;" vertex="1" parent="1">
          <mxGeometry x="139" y="81" width="510" height="140" as="geometry" />
        </mxCell>
        <mxCell id="Rk4vVzOvWR1lfrGUiNAf-31" value="&lt;font style=&quot;font-size: 14px&quot;&gt;组织保障&lt;/font&gt;" style="text;html=1;strokeColor=none;fillColor=none;align=center;verticalAlign=middle;whiteSpace=wrap;rounded=0;dashed=1;fontSize=16;fontColor=#0A2D63;fontStyle=1" vertex="1" parent="1">
          <mxGeometry x="346.5" y="91" width="95" height="20" as="geometry" />
        </mxCell>
        <mxCell id="Rk4vVzOvWR1lfrGUiNAf-32" value="" style="rounded=1;whiteSpace=wrap;html=1;dashed=1;fontSize=18;align=center;arcSize=3;strokeColor=none;fillColor=#c2f9f4;" vertex="1" parent="1">
          <mxGeometry x="139" y="231" width="510" height="240" as="geometry" />
        </mxCell>
        <mxCell id="Rk4vVzOvWR1lfrGUiNAf-34" value="权责划分" style="rounded=1;whiteSpace=wrap;html=1;dashed=1;fontSize=12;align=center;fontColor=#ffffff;fillColor=#988ce3;strokeColor=none;fontStyle=1" vertex="1" parent="1">
          <mxGeometry x="409.43" y="121" width="187" height="40" as="geometry" />
        </mxCell>
        <mxCell id="Rk4vVzOvWR1lfrGUiNAf-36" value="项目管理" style="rounded=1;whiteSpace=wrap;html=1;dashed=1;fontSize=12;align=center;fontColor=#ffffff;fillColor=#988ce3;strokeColor=none;fontStyle=1" vertex="1" parent="1">
          <mxGeometry x="409.43" y="171" width="187" height="40" as="geometry" />
        </mxCell>
        <mxCell id="Rk4vVzOvWR1lfrGUiNAf-39" value="&lt;font style=&quot;font-size: 14px&quot;&gt;流程管控&lt;/font&gt;" style="text;html=1;strokeColor=none;fillColor=none;align=center;verticalAlign=middle;whiteSpace=wrap;rounded=0;dashed=1;fontSize=16;fontColor=#0A2D63;fontStyle=1" vertex="1" parent="1">
          <mxGeometry x="333.62" y="241" width="120.75" height="20" as="geometry" />
        </mxCell>
        <mxCell id="Rk4vVzOvWR1lfrGUiNAf-30" value="&lt;font style=&quot;font-size: 12px;&quot;&gt;目标对齐&lt;/font&gt;" style="rounded=1;whiteSpace=wrap;html=1;dashed=1;fontSize=12;align=center;fontColor=#ffffff;fillColor=#988ce3;strokeColor=none;fontStyle=1" vertex="1" parent="1">
          <mxGeometry x="191.56" y="121" width="187" height="40" as="geometry" />
        </mxCell>
        <mxCell id="Rk4vVzOvWR1lfrGUiNAf-35" value="资源保障" style="rounded=1;whiteSpace=wrap;html=1;dashed=1;fontSize=12;align=center;fontColor=#ffffff;fillColor=#988ce3;strokeColor=none;fontStyle=1" vertex="1" parent="1">
          <mxGeometry x="191.56" y="171" width="187" height="40" as="geometry" />
        </mxCell>
        <mxCell id="Rk4vVzOvWR1lfrGUiNAf-88" value="" style="group" vertex="1" connectable="0" parent="1">
          <mxGeometry x="165" y="271" width="457.75" height="190" as="geometry" />
        </mxCell>
        <mxCell id="Rk4vVzOvWR1lfrGUiNAf-84" value="" style="group" vertex="1" connectable="0" parent="Rk4vVzOvWR1lfrGUiNAf-88">
          <mxGeometry x="165" width="127.74999999999999" height="190" as="geometry" />
        </mxCell>
        <mxCell id="Rk4vVzOvWR1lfrGUiNAf-77" value="" style="rounded=0;whiteSpace=wrap;html=1;fontSize=14;strokeColor=#00BCC3;fillColor=none;dashed=1;" vertex="1" parent="Rk4vVzOvWR1lfrGUiNAf-84">
          <mxGeometry width="127.75" height="190" as="geometry" />
        </mxCell>
        <mxCell id="Rk4vVzOvWR1lfrGUiNAf-69" value="风控审核" style="rounded=1;whiteSpace=wrap;html=1;dashed=1;fontSize=12;align=center;fontColor=#ffffff;strokeColor=none;fillColor=#00bcc3;fontStyle=1" vertex="1" parent="Rk4vVzOvWR1lfrGUiNAf-84">
          <mxGeometry x="10.36999999999999" y="70" width="107" height="40" as="geometry" />
        </mxCell>
        <mxCell id="Rk4vVzOvWR1lfrGUiNAf-68" value="专项回归" style="rounded=1;whiteSpace=wrap;html=1;dashed=1;fontSize=12;align=center;fontColor=#ffffff;strokeColor=none;fillColor=#00bcc3;fontStyle=1" vertex="1" parent="Rk4vVzOvWR1lfrGUiNAf-84">
          <mxGeometry x="10.36999999999999" y="20" width="107" height="40" as="geometry" />
        </mxCell>
        <mxCell id="Rk4vVzOvWR1lfrGUiNAf-70" value="故障演练" style="rounded=1;whiteSpace=wrap;html=1;dashed=1;fontSize=12;align=center;fontColor=#ffffff;strokeColor=none;fillColor=#00bcc3;fontStyle=1" vertex="1" parent="Rk4vVzOvWR1lfrGUiNAf-84">
          <mxGeometry x="10.36999999999999" y="120" width="107" height="40" as="geometry" />
        </mxCell>
        <mxCell id="Rk4vVzOvWR1lfrGUiNAf-71" value="&lt;font style=&quot;font-size: 14px;&quot;&gt;测试&lt;/font&gt;" style="text;html=1;strokeColor=none;fillColor=none;align=center;verticalAlign=middle;whiteSpace=wrap;rounded=0;dashed=1;fontSize=14;fontColor=#0A2D63;fontStyle=1" vertex="1" parent="Rk4vVzOvWR1lfrGUiNAf-84">
          <mxGeometry x="3.4999999999999947" y="170" width="120.75" height="20" as="geometry" />
        </mxCell>
        <mxCell id="Rk4vVzOvWR1lfrGUiNAf-83" value="" style="group" vertex="1" connectable="0" parent="Rk4vVzOvWR1lfrGUiNAf-88">
          <mxGeometry width="127.75000000000001" height="190" as="geometry" />
        </mxCell>
        <mxCell id="Rk4vVzOvWR1lfrGUiNAf-51" value="" style="rounded=0;whiteSpace=wrap;html=1;fontSize=14;strokeColor=#00BCC3;fillColor=none;dashed=1;" vertex="1" parent="Rk4vVzOvWR1lfrGUiNAf-83">
          <mxGeometry width="127.75" height="190" as="geometry" />
        </mxCell>
        <mxCell id="Rk4vVzOvWR1lfrGUiNAf-33" value="代码管理" style="rounded=1;whiteSpace=wrap;html=1;dashed=1;fontSize=12;align=center;fontColor=#ffffff;strokeColor=none;fillColor=#00bcc3;fontStyle=1" vertex="1" parent="Rk4vVzOvWR1lfrGUiNAf-83">
          <mxGeometry x="10.38000000000001" y="20" width="107" height="40" as="geometry" />
        </mxCell>
        <mxCell id="Rk4vVzOvWR1lfrGUiNAf-37" value="研发规范" style="rounded=1;whiteSpace=wrap;html=1;dashed=1;fontSize=12;align=center;fontColor=#ffffff;strokeColor=none;fillColor=#00bcc3;fontStyle=1" vertex="1" parent="Rk4vVzOvWR1lfrGUiNAf-83">
          <mxGeometry x="10.37000000000001" y="70" width="107" height="40" as="geometry" />
        </mxCell>
        <mxCell id="Rk4vVzOvWR1lfrGUiNAf-38" value="依赖隔离" style="rounded=1;whiteSpace=wrap;html=1;dashed=1;fontSize=12;align=center;fontColor=#ffffff;strokeColor=none;fillColor=#00bcc3;fontStyle=1" vertex="1" parent="Rk4vVzOvWR1lfrGUiNAf-83">
          <mxGeometry x="10.38000000000001" y="120" width="107" height="40" as="geometry" />
        </mxCell>
        <mxCell id="Rk4vVzOvWR1lfrGUiNAf-67" value="&lt;font style=&quot;font-size: 14px;&quot;&gt;研发&lt;/font&gt;" style="text;html=1;strokeColor=none;fillColor=none;align=center;verticalAlign=middle;whiteSpace=wrap;rounded=0;dashed=1;fontSize=14;fontColor=#0A2D63;fontStyle=1" vertex="1" parent="Rk4vVzOvWR1lfrGUiNAf-83">
          <mxGeometry x="3.510000000000005" y="170" width="120.75" height="20" as="geometry" />
        </mxCell>
        <mxCell id="Rk4vVzOvWR1lfrGUiNAf-85" value="" style="group" vertex="1" connectable="0" parent="Rk4vVzOvWR1lfrGUiNAf-88">
          <mxGeometry x="330" width="127.75" height="190" as="geometry" />
        </mxCell>
        <mxCell id="Rk4vVzOvWR1lfrGUiNAf-86" value="" style="group" vertex="1" connectable="0" parent="Rk4vVzOvWR1lfrGUiNAf-85">
          <mxGeometry width="127.75" height="190" as="geometry" />
        </mxCell>
        <mxCell id="Rk4vVzOvWR1lfrGUiNAf-78" value="" style="rounded=0;whiteSpace=wrap;html=1;fontSize=14;strokeColor=#00BCC3;fillColor=none;dashed=1;" vertex="1" parent="Rk4vVzOvWR1lfrGUiNAf-86">
          <mxGeometry width="127.75" height="190" as="geometry" />
        </mxCell>
        <mxCell id="Rk4vVzOvWR1lfrGUiNAf-72" value="精准灰度" style="rounded=1;whiteSpace=wrap;html=1;dashed=1;fontSize=12;align=center;fontColor=#ffffff;strokeColor=none;fillColor=#00bcc3;fontStyle=1" vertex="1" parent="Rk4vVzOvWR1lfrGUiNAf-86">
          <mxGeometry x="10.370000000000005" y="20" width="107" height="40" as="geometry" />
        </mxCell>
        <mxCell id="Rk4vVzOvWR1lfrGUiNAf-73" value="发布规范" style="rounded=1;whiteSpace=wrap;html=1;dashed=1;fontSize=12;align=center;fontColor=#ffffff;strokeColor=none;fillColor=#00bcc3;fontStyle=1" vertex="1" parent="Rk4vVzOvWR1lfrGUiNAf-86">
          <mxGeometry x="10.370000000000005" y="70" width="107" height="40" as="geometry" />
        </mxCell>
        <mxCell id="Rk4vVzOvWR1lfrGUiNAf-74" value="应急响应" style="rounded=1;whiteSpace=wrap;html=1;dashed=1;fontSize=12;align=center;fontColor=#ffffff;strokeColor=none;fillColor=#00bcc3;fontStyle=1" vertex="1" parent="Rk4vVzOvWR1lfrGUiNAf-86">
          <mxGeometry x="10.370000000000005" y="120" width="107" height="40" as="geometry" />
        </mxCell>
        <mxCell id="Rk4vVzOvWR1lfrGUiNAf-75" value="发布" style="text;html=1;strokeColor=none;fillColor=none;align=center;verticalAlign=middle;whiteSpace=wrap;rounded=0;dashed=1;fontSize=14;fontColor=#0A2D63;fontStyle=1" vertex="1" parent="Rk4vVzOvWR1lfrGUiNAf-86">
          <mxGeometry x="3.5" y="170" width="120.75" height="20" as="geometry" />
        </mxCell>
        <mxCell id="Rk4vVzOvWR1lfrGUiNAf-96" value="" style="group" vertex="1" connectable="0" parent="1">
          <mxGeometry x="160" y="521" width="120.75" height="160" as="geometry" />
        </mxCell>
        <mxCell id="Rk4vVzOvWR1lfrGUiNAf-89" value="" style="rounded=0;whiteSpace=wrap;html=1;fontSize=14;fillColor=none;dashed=1;strokeColor=#6B9BF1;" vertex="1" parent="Rk4vVzOvWR1lfrGUiNAf-96">
          <mxGeometry x="16.5" width="87.75" height="160" as="geometry" />
        </mxCell>
        <mxCell id="Rk4vVzOvWR1lfrGUiNAf-42" value="业务监控" style="rounded=1;dashed=1;fontSize=10;align=center;fontColor=#ffffff;strokeColor=none;fontStyle=1;fillColor=#6b9bf1;" vertex="1" parent="Rk4vVzOvWR1lfrGUiNAf-96">
          <mxGeometry x="23.439999999999998" y="10" width="73.87" height="30" as="geometry" />
        </mxCell>
        <mxCell id="Rk4vVzOvWR1lfrGUiNAf-93" value="系统监控" style="rounded=1;dashed=1;fontSize=10;align=center;fontColor=#ffffff;strokeColor=none;fontStyle=1;fillColor=#6b9bf1;" vertex="1" parent="Rk4vVzOvWR1lfrGUiNAf-96">
          <mxGeometry x="23.439999999999998" y="50" width="73.87" height="30" as="geometry" />
        </mxCell>
        <mxCell id="Rk4vVzOvWR1lfrGUiNAf-94" value="全链路日志" style="rounded=1;dashed=1;fontSize=10;align=center;fontColor=#ffffff;strokeColor=none;fontStyle=1;fillColor=#6b9bf1;" vertex="1" parent="Rk4vVzOvWR1lfrGUiNAf-96">
          <mxGeometry x="23.439999999999998" y="90" width="73.87" height="30" as="geometry" />
        </mxCell>
        <mxCell id="Rk4vVzOvWR1lfrGUiNAf-95" value="&lt;font style=&quot;font-size: 12px&quot;&gt;线上监控&lt;/font&gt;" style="text;html=1;strokeColor=none;fillColor=none;align=center;verticalAlign=middle;whiteSpace=wrap;rounded=0;dashed=1;fontSize=14;fontColor=#0A2D63;fontStyle=1" vertex="1" parent="Rk4vVzOvWR1lfrGUiNAf-96">
          <mxGeometry y="130" width="120.75" height="20" as="geometry" />
        </mxCell>
        <mxCell id="Rk4vVzOvWR1lfrGUiNAf-97" value="" style="group" vertex="1" connectable="0" parent="1">
          <mxGeometry x="275.25" y="521" width="120.75" height="160" as="geometry" />
        </mxCell>
        <mxCell id="Rk4vVzOvWR1lfrGUiNAf-98" value="" style="rounded=0;whiteSpace=wrap;html=1;fontSize=14;fillColor=none;dashed=1;strokeColor=#6B9BF1;" vertex="1" parent="Rk4vVzOvWR1lfrGUiNAf-97">
          <mxGeometry x="16.5" width="87.75" height="160" as="geometry" />
        </mxCell>
        <mxCell id="Rk4vVzOvWR1lfrGUiNAf-99" value="静态检查" style="rounded=1;dashed=1;fontSize=10;align=center;fontColor=#ffffff;strokeColor=none;fontStyle=1;fillColor=#6b9bf1;" vertex="1" parent="Rk4vVzOvWR1lfrGUiNAf-97">
          <mxGeometry x="23.439999999999998" y="10" width="73.87" height="30" as="geometry" />
        </mxCell>
        <mxCell id="Rk4vVzOvWR1lfrGUiNAf-100" value="变更检测" style="rounded=1;dashed=1;fontSize=10;align=center;fontColor=#ffffff;strokeColor=none;fontStyle=1;fillColor=#6b9bf1;" vertex="1" parent="Rk4vVzOvWR1lfrGUiNAf-97">
          <mxGeometry x="23.439999999999998" y="50" width="73.87" height="30" as="geometry" />
        </mxCell>
        <mxCell id="Rk4vVzOvWR1lfrGUiNAf-101" value="组件管理" style="rounded=1;dashed=1;fontSize=10;align=center;fontColor=#ffffff;strokeColor=none;fontStyle=1;fillColor=#6b9bf1;" vertex="1" parent="Rk4vVzOvWR1lfrGUiNAf-97">
          <mxGeometry x="23.439999999999998" y="90" width="73.87" height="30" as="geometry" />
        </mxCell>
        <mxCell id="Rk4vVzOvWR1lfrGUiNAf-102" value="&lt;font style=&quot;font-size: 12px&quot;&gt;线下监控&lt;/font&gt;" style="text;html=1;strokeColor=none;fillColor=none;align=center;verticalAlign=middle;whiteSpace=wrap;rounded=0;dashed=1;fontSize=14;fontColor=#0A2D63;fontStyle=1" vertex="1" parent="Rk4vVzOvWR1lfrGUiNAf-97">
          <mxGeometry y="130" width="120.75" height="20" as="geometry" />
        </mxCell>
        <mxCell id="Rk4vVzOvWR1lfrGUiNAf-105" value="" style="group" vertex="1" connectable="0" parent="1">
          <mxGeometry x="389.25" y="521" width="120.75" height="160" as="geometry" />
        </mxCell>
        <mxCell id="Rk4vVzOvWR1lfrGUiNAf-106" value="" style="rounded=0;whiteSpace=wrap;html=1;fontSize=14;fillColor=none;dashed=1;strokeColor=#6B9BF1;" vertex="1" parent="Rk4vVzOvWR1lfrGUiNAf-105">
          <mxGeometry x="16.5" width="87.75" height="160" as="geometry" />
        </mxCell>
        <mxCell id="Rk4vVzOvWR1lfrGUiNAf-107" value="精准测试" style="rounded=1;dashed=1;fontSize=10;align=center;fontColor=#ffffff;strokeColor=none;fontStyle=1;fillColor=#6b9bf1;" vertex="1" parent="Rk4vVzOvWR1lfrGUiNAf-105">
          <mxGeometry x="23.439999999999998" y="10" width="73.87" height="30" as="geometry" />
        </mxCell>
        <mxCell id="Rk4vVzOvWR1lfrGUiNAf-108" value="自动化回归" style="rounded=1;dashed=1;fontSize=10;align=center;fontColor=#ffffff;strokeColor=none;fontStyle=1;fillColor=#6b9bf1;" vertex="1" parent="Rk4vVzOvWR1lfrGUiNAf-105">
          <mxGeometry x="23.439999999999998" y="50" width="73.87" height="30" as="geometry" />
        </mxCell>
        <mxCell id="Rk4vVzOvWR1lfrGUiNAf-109" value="灰度平台" style="rounded=1;dashed=1;fontSize=10;align=center;fontColor=#ffffff;strokeColor=none;fontStyle=1;fillColor=#6b9bf1;" vertex="1" parent="Rk4vVzOvWR1lfrGUiNAf-105">
          <mxGeometry x="23.439999999999998" y="90" width="73.87" height="30" as="geometry" />
        </mxCell>
        <mxCell id="Rk4vVzOvWR1lfrGUiNAf-110" value="&lt;span style=&quot;font-size: 12px&quot;&gt;发布准入&lt;/span&gt;" style="text;html=1;strokeColor=none;fillColor=none;align=center;verticalAlign=middle;whiteSpace=wrap;rounded=0;dashed=1;fontSize=14;fontColor=#0A2D63;fontStyle=1" vertex="1" parent="Rk4vVzOvWR1lfrGUiNAf-105">
          <mxGeometry y="130" width="120.75" height="20" as="geometry" />
        </mxCell>
        <mxCell id="Rk4vVzOvWR1lfrGUiNAf-112" value="" style="group" vertex="1" connectable="0" parent="1">
          <mxGeometry x="504.25" y="521" width="120.75" height="160" as="geometry" />
        </mxCell>
        <mxCell id="Rk4vVzOvWR1lfrGUiNAf-113" value="" style="rounded=0;whiteSpace=wrap;html=1;fontSize=14;fillColor=none;dashed=1;strokeColor=#6B9BF1;" vertex="1" parent="Rk4vVzOvWR1lfrGUiNAf-112">
          <mxGeometry x="16.5" width="87.75" height="160" as="geometry" />
        </mxCell>
        <mxCell id="Rk4vVzOvWR1lfrGUiNAf-114" value="热更新" style="rounded=1;dashed=1;fontSize=10;align=center;fontColor=#ffffff;strokeColor=none;fontStyle=1;fillColor=#6b9bf1;" vertex="1" parent="Rk4vVzOvWR1lfrGUiNAf-112">
          <mxGeometry x="23.439999999999998" y="10" width="73.87" height="30" as="geometry" />
        </mxCell>
        <mxCell id="Rk4vVzOvWR1lfrGUiNAf-115" value="容器化" style="rounded=1;dashed=1;fontSize=10;align=center;fontColor=#ffffff;strokeColor=none;fontStyle=1;fillColor=#6b9bf1;" vertex="1" parent="Rk4vVzOvWR1lfrGUiNAf-112">
          <mxGeometry x="23.439999999999998" y="50" width="73.87" height="30" as="geometry" />
        </mxCell>
        <mxCell id="Rk4vVzOvWR1lfrGUiNAf-116" value="容灾降级" style="rounded=1;dashed=1;fontSize=10;align=center;fontColor=#ffffff;strokeColor=none;fontStyle=1;fillColor=#6b9bf1;" vertex="1" parent="Rk4vVzOvWR1lfrGUiNAf-112">
          <mxGeometry x="23.439999999999998" y="90" width="73.87" height="30" as="geometry" />
        </mxCell>
        <mxCell id="Rk4vVzOvWR1lfrGUiNAf-117" value="&lt;span style=&quot;font-size: 12px&quot;&gt;动态更新&lt;/span&gt;" style="text;html=1;strokeColor=none;fillColor=none;align=center;verticalAlign=middle;whiteSpace=wrap;rounded=0;dashed=1;fontSize=14;fontColor=#0A2D63;fontStyle=1" vertex="1" parent="Rk4vVzOvWR1lfrGUiNAf-112">
          <mxGeometry y="130" width="120.75" height="20" as="geometry" />
        </mxCell>
        <mxCell id="Rk4vVzOvWR1lfrGUiNAf-121" value="" style="rounded=1;whiteSpace=wrap;html=1;dashed=1;fontSize=18;align=center;arcSize=6;strokeColor=none;fillColor=#ffe4e7;" vertex="1" parent="1">
          <mxGeometry x="660" y="481" width="90" height="210" as="geometry" />
        </mxCell>
        <mxCell id="Rk4vVzOvWR1lfrGUiNAf-123" value="&lt;font style=&quot;font-size: 12px&quot;&gt;舆&lt;br&gt;情&lt;br&gt;分&lt;br&gt;析&lt;/font&gt;" style="rounded=1;whiteSpace=wrap;html=1;dashed=1;fontSize=16;align=center;fontColor=#ffffff;strokeColor=none;fontStyle=1;direction=south;horizontal=1;fillColor=#fd8494;" vertex="1" parent="1">
          <mxGeometry x="700" y="336.5" width="40" height="95" as="geometry" />
        </mxCell>
        <mxCell id="Rk4vVzOvWR1lfrGUiNAf-124" value="文化建设" style="text;html=1;strokeColor=none;fillColor=none;align=center;verticalAlign=middle;whiteSpace=wrap;rounded=0;dashed=1;fontSize=14;fontColor=#0A2D63;fontStyle=1" vertex="1" parent="1">
          <mxGeometry x="644.63" y="491" width="120.75" height="20" as="geometry" />
        </mxCell>
        <mxCell id="Rk4vVzOvWR1lfrGUiNAf-127" value="操作手册" style="rounded=1;dashed=1;fontSize=10;align=center;fontColor=#ffffff;strokeColor=none;fontStyle=1;fillColor=#FD8494;" vertex="1" parent="1">
          <mxGeometry x="668.0699999999999" y="522" width="73.87" height="30" as="geometry" />
        </mxCell>
        <mxCell id="Rk4vVzOvWR1lfrGUiNAf-128" value="培训学习" style="rounded=1;dashed=1;fontSize=10;align=center;fontColor=#ffffff;strokeColor=none;fontStyle=1;fillColor=#FD8494;" vertex="1" parent="1">
          <mxGeometry x="668.0699999999999" y="563" width="73.87" height="30" as="geometry" />
        </mxCell>
        <mxCell id="Rk4vVzOvWR1lfrGUiNAf-129" value="考试机制" style="rounded=1;dashed=1;fontSize=10;align=center;fontColor=#ffffff;strokeColor=none;fontStyle=1;fillColor=#FD8494;" vertex="1" parent="1">
          <mxGeometry x="669.9999999999999" y="605" width="73.87" height="30" as="geometry" />
        </mxCell>
        <mxCell id="Rk4vVzOvWR1lfrGUiNAf-130" value="故障追责" style="rounded=1;dashed=1;fontSize=10;align=center;fontColor=#ffffff;strokeColor=none;fontStyle=1;fillColor=#FD8494;" vertex="1" parent="1">
          <mxGeometry x="669.9999999999999" y="646" width="73.87" height="30" as="geometry" />
        </mxCell>
      </root>
    </mxGraphModel>
  </diagram>
</mxfile>
